<?xml version="1.0"?>
<svg xmlns="http://www.w3.org/2000/svg" id="Layer_1" data-name="Layer 1" viewBox="0 0 512 512" width="512" height="512"><path d="M447.13,160H295V127h25.88A17.988,17.988,0,0,0,339,109.16V50.09A18.2,18.2,0,0,0,320.88,32H302.333a6,6,0,0,0,0,12H320.88A6.188,6.188,0,0,1,327,50.09v59.07a5.976,5.976,0,0,1-6.12,5.84H191.12a5.976,5.976,0,0,1-6.12-5.84V50.09A6.188,6.188,0,0,1,191.12,44h89.547a6,6,0,0,0,0-12H191.12A18.2,18.2,0,0,0,173,50.09v59.07A17.988,17.988,0,0,0,191.12,127H215v33H152V136.06a6.018,6.018,0,0,0-5.96-6.06H88.97A6.026,6.026,0,0,0,83,136.06V160H64.87A41.979,41.979,0,0,0,23,202.05V437.91A42.014,42.014,0,0,0,64.87,480H447.13A42.014,42.014,0,0,0,489,437.91V202.05A41.979,41.979,0,0,0,447.13,160ZM227,127h56v33H227ZM95,142h45v18H95ZM477,411H432.13A20.471,20.471,0,0,1,412,390.61V378h65Zm0-45H412V324h65Zm0-104H412V250.34A20.427,20.427,0,0,1,432.13,230H477Zm0-44H432.13A32.44,32.44,0,0,0,400,250.34V284a6,6,0,0,0,12,0V274h65v38H412v-7.333a6,6,0,1,0-12,0V390.61c0,17.645,14.485,32.39,32.13,32.39H477v14.91A30,30,0,0,1,447.13,468H64.87A30,30,0,0,1,35,437.91V202.05A29.966,29.966,0,0,1,64.87,172H447.13A29.966,29.966,0,0,1,477,202.05Z"/><path d="M256,210.46a109.915,109.915,0,0,0-87.712,43.211,6,6,0,0,0,9.51,7.318,98.177,98.177,0,1,1-10.307,16.548,6,6,0,0,0-10.764-5.3A109.512,109.512,0,0,0,145.39,321.06,110.61,110.61,0,1,0,256,210.46Z"/><path d="M137,202H67a6,6,0,0,0-6,6v37a6,6,0,0,0,6,6h70a6,6,0,0,0,6-6V208A6,6,0,0,0,137,202Zm-7,37H73V214h57Z"/><path d="M256,394.38a73.315,73.315,0,1,0-73.32-73.32A73.4,73.4,0,0,0,256,394.38Zm0-134.63a61.315,61.315,0,1,1-61.32,61.31A61.384,61.384,0,0,1,256,259.75Z"/><path d="M199,64V95a6,6,0,0,0,6,6H307a6,6,0,0,0,6-6V64a6,6,0,0,0-6-6H205A6,6,0,0,0,199,64Zm12,6h90V89H211Z"/><path d="M81.33,402.38a18.455,18.455,0,1,0,18.46,18.45A18.471,18.471,0,0,0,81.33,402.38Zm0,24.91a6.455,6.455,0,1,1,6.46-6.46A6.462,6.462,0,0,1,81.33,427.29Z"/></svg>
