<svg id="Capa_1" enable-background="new 0 0 512 512" height="512" viewBox="0 0 512 512" width="512" xmlns="http://www.w3.org/2000/svg"><g><path d="m497 482h-13.691c-17.618-30.213-17.618-59.787 0-90h13.691c8.284 0 15-6.716 15-15s-6.716-15-15-15h-151.725c12.612-14.786 22.187-31.872 28.238-50.297 48.884-3.842 87.487-44.848 87.487-94.703 0-30.327-24.673-55-55-55h-260c-8.284 0-15 6.716-15 15v87.889c0 36.12 12.917 70.371 35.725 97.111h-91.725c-41.355 0-75 33.645-75 75s33.645 75 75 75h422c8.284 0 15-6.716 15-15s-6.716-15-15-15zm-66-265c0 30.969-21.777 56.931-50.817 63.423.531-5.129.817-10.31.817-15.533v-72.89h25c13.785 0 25 11.215 25 25zm-80-25v30h-190v-30zm-190 72.889v-12.889h190v12.889c0 38.65-18.491 74.625-49.688 97.111h-90.625c-31.196-22.486-49.687-58.461-49.687-97.111zm288.717 217.111h-374.717c-24.813 0-45-20.187-45-45s20.187-45 45-45h374.717c-6.458 14.908-9.717 29.968-9.717 45s3.259 30.092 9.717 45z"/><path d="m305 422h-180c-8.284 0-15 6.716-15 15s6.716 15 15 15h180c8.284 0 15-6.716 15-15s-6.716-15-15-15z"/><path d="m395 422h-30c-8.284 0-15 6.716-15 15s6.716 15 15 15h30c8.284 0 15-6.716 15-15s-6.716-15-15-15z"/><path d="m176 115h55c5.514 0 10 4.486 10 10 0 8.284 6.716 15 15 15s15-6.716 15-15c0-22.056-17.944-40-40-40h-55c-8.271 0-15-6.729-15-15s6.729-15 15-15h165c22.056 0 40-17.944 40-40 0-8.284-6.716-15-15-15s-15 6.716-15 15c0 5.514-4.486 10-10 10h-165c-24.813 0-45 20.187-45 45s20.187 45 45 45z"/></g></svg>