<svg id="Capa_1" enable-background="new 0 0 511.994 511.994" height="512" viewBox="0 0 511.994 511.994" width="512" xmlns="http://www.w3.org/2000/svg"><g><path d="m213.279 280.564c-19.957 0-36.192 16.236-36.192 36.192s16.235 36.192 36.192 36.192 36.192-16.236 36.192-36.192-16.235-36.192-36.192-36.192zm0 57.384c-11.686 0-21.192-9.507-21.192-21.192s9.507-21.192 21.192-21.192 21.192 9.507 21.192 21.192-9.507 21.192-21.192 21.192z"/><path d="m453.927 197.465c-17.197 5.747-26.195 22.012-21.559 35.887 4.756 14.229 22.164 21.275 38.803 15.714 13.547-4.527 23.025-16.195 22.757-28.903.01-.16.024-.318.024-.481 0-9.875 0-76.241 0-85.054 0-9.324-7.631-14.157-14.583-12.918h.001l-67.635 11.977c-5.94 1.052-10.252 6.195-10.252 12.228v66.196c-6.999-3.175-15.637-3.808-24.138-1.189-9.527-14.744-20.953-28.094-34.088-39.815 5.152-6.91 7.905-14.993 7.55-23.05 0-.013.002-.025.002-.037v-90.42h45.704c17.65 0 24.604-22.953 9.927-32.75-17.536-11.709-31.15-22.745-56.234-24.804-7.727-.639-14.396 5.524-14.396 13.315v109.36c-10.377-6.655-24.758-8.512-38.767-3.832-8.075 2.699-15.156 7.259-20.528 13.125-20.323-6.962-41.568-10.496-63.237-10.496-110.425 0-195.237 90.193-195.237 195.238 0 107.655 87.583 195.238 195.237 195.238 109.619 0 195.238-89.318 195.238-195.238 0-19.363-2.83-38.43-8.406-56.786 10.755-5.999 16.766-16.324 16.37-26.519 0-.017.002-.033.002-.05v-57.885l62.469-11.062v33.953c-7.238-3.296-16.237-3.878-25.024-.942zm12.491 37.375c-8.65 2.89-17.726.03-19.822-6.243-2.091-6.256 3.358-13.988 12.086-16.905 8.656-2.891 17.726-.027 19.822 6.243 2.089 6.251-3.353 13.986-12.086 16.905zm-68.305-197.518c1.546 1.032 1.389 2.467 1.157 3.23-.231.764-.897 2.044-2.756 2.044h-45.704v-27.425c19.902 2.17 30.152 10.703 47.303 22.151zm-96.316 95.794c16.507-5.515 33.1 1.691 34.034 15.334.007.118.008.238.02.355.536 11.379-9.792 20.947-20.603 24.561-14.571 4.871-29.549-.234-33.234-11.267-4.117-12.31 6.782-24.637 19.783-28.983zm-268.755 183.64c0-46.999 18.09-89.847 47.663-121.967l73.724 73.723c-10.794 13.143-17.284 29.949-17.284 48.244 0 39.45 30.162 71.982 68.635 75.762v104.308c-95.918-3.947-172.738-83.2-172.738-180.07zm187.737 180.07v-104.299c15.008-1.463 29.092-7.307 40.755-16.91l73.713 73.714c-30.82 28.376-70.924 45.702-114.468 47.495zm125.075-58.102-73.736-73.736c7.751-9.424 13.325-20.775 15.828-33.36.808-4.062-1.831-8.011-5.894-8.819-4.062-.807-8.012 1.83-8.819 5.893-5.655 28.438-30.83 49.189-59.954 49.189 0 0-.004 0-.006 0-33.707-.003-61.128-27.427-61.128-61.135 0-34.001 27.731-61.135 61.135-61.135 26.371 0 49.688 16.842 58.019 41.909 1.307 3.931 5.554 6.056 9.482 4.751 3.931-1.307 6.059-5.552 4.752-9.483-9.575-28.809-35.057-48.877-64.753-51.796v-31.095c0-4.142-3.357-7.5-7.5-7.5s-7.5 3.358-7.5 7.5v31.077c-14.994 1.471-29.112 7.324-40.754 16.911l-73.714-73.714c31.146-28.677 71.356-45.72 114.468-47.496v38.222c0 4.142 3.357 7.5 7.5 7.5s7.5-3.358 7.5-7.5v-38.233c16.246.665 32.193 3.487 47.585 8.429-2.762 7.343-2.864 14.911-.577 21.75 6.801 20.352 31.337 27.716 52.215 20.739 4.461-1.491 8.832-3.704 12.367-6.102 12.243 10.781 22.908 23.077 31.807 36.672-21.487 18.69-7.657 49.518 21.646 46.346 5.108 16.886 7.694 34.43 7.694 52.247 0 47-18.09 89.849-47.663 121.969zm43.132-190.165c-7.808 2.614-17.46.597-19.792-6.17-.009-.025-.022-.047-.03-.072-.001-.003-.002-.007-.003-.01-2.074-6.228 3.401-13.992 12.089-16.896 8.654-2.891 17.726-.028 19.822 6.243 2.087 6.243-3.342 13.982-12.086 16.905zm27.498-88.276v-11.936-.268l62.469-11.062v12.204z"/></g></svg>